<svg width="21" height="20" viewBox="0 0 21 20" fill="none" xmlns="http://www.w3.org/2000/svg">
<path d="M3.22209 8C3.05425 8.6534 2.96958 9.32538 2.97009 10C2.97009 10.69 3.05809 11.36 3.22209 12H6.07009C5.93527 10.6701 5.93527 9.32993 6.07009 8H3.22209ZM4.04009 6H6.38609C6.65209 4.783 7.03609 3.693 7.50709 2.786C6.05527 3.48542 4.84731 4.60523 4.04009 6ZM18.7181 8H15.8701C16.0049 9.32993 16.0049 10.6701 15.8701 12H18.7181C19.0548 10.6879 19.0548 9.31208 18.7181 8ZM17.9001 6C17.0929 4.60523 15.8849 3.48542 14.4331 2.786C14.9051 3.693 15.2881 4.783 15.5541 6H17.9001ZM8.08209 8C8.00717 8.66403 7.96978 9.33176 7.97009 10C7.97009 10.685 8.00809 11.355 8.08209 12H13.8581C14.0087 10.6709 14.0087 9.32908 13.8581 8H8.08209ZM8.44009 6H13.5001C13.3181 5.2483 13.0556 4.51841 12.7171 3.823C12.0891 2.568 11.4171 2 10.9701 2C10.5221 2 9.85109 2.568 9.22309 3.823C8.90809 4.455 8.64309 5.19 8.44009 6ZM4.04009 14C4.84731 15.3948 6.05527 16.5146 7.50709 17.214C7.03509 16.307 6.65209 15.217 6.38609 14H4.04009ZM17.9001 14H15.5541C15.2881 15.217 14.9041 16.307 14.4331 17.214C15.8849 16.5146 17.0929 15.3948 17.9001 14ZM8.44009 14C8.64309 14.81 8.90809 15.545 9.22309 16.177C9.85109 17.432 10.5231 18 10.9701 18C11.4181 18 12.0891 17.432 12.7171 16.177C13.0321 15.545 13.2971 14.81 13.5001 14H8.44009ZM10.9701 20C5.44709 20 0.970093 15.523 0.970093 10C0.970093 4.477 5.44709 0 10.9701 0C16.4931 0 20.9701 4.477 20.9701 10C20.9701 15.523 16.4931 20 10.9701 20Z" fill="#7E8DA3"/>
</svg>
