<svg width="24" height="20" viewBox="0 0 24 20" fill="none" xmlns="http://www.w3.org/2000/svg">
<path d="M21.5156 5.05225C22.4531 4.34912 23.2969 3.50537 24 2.47412C23.0625 2.896 22.125 3.17725 21.1875 3.271C22.2188 2.61475 22.9688 1.72412 23.3438 0.552246C22.3594 1.11475 21.3281 1.53662 20.2031 1.72412C19.7344 1.25537 19.1719 0.880371 18.5625 0.599121C17.9531 0.317871 17.2969 0.177246 16.5938 0.177246C15.7031 0.177246 14.9062 0.411621 14.1562 0.833496C13.4062 1.30225 12.7969 1.91162 12.375 2.66162C11.9062 3.41162 11.7188 4.25537 11.7188 5.09912C11.7188 5.47412 11.7188 5.84912 11.8125 6.22412C9.79688 6.13037 7.92188 5.66162 6.14062 4.72412C4.35938 3.8335 2.90625 2.61475 1.6875 1.06787C1.21875 1.86475 0.984375 2.7085 0.984375 3.55225C0.984375 4.396 1.17188 5.19287 1.59375 5.896C1.96875 6.646 2.53125 7.2085 3.1875 7.67725C2.39062 7.67725 1.64062 7.44287 0.984375 7.021V7.11475C0.984375 8.28662 1.35938 9.31787 2.10938 10.2085C2.85938 11.146 3.79688 11.7085 4.92188 11.9429C4.45312 12.0366 4.03125 12.0835 3.60938 12.0835C3.32812 12.0835 3 12.0835 2.71875 12.0366C3 13.021 3.5625 13.8179 4.40625 14.4741C5.25 15.1304 6.1875 15.4116 7.3125 15.4116C5.48438 16.8179 3.42188 17.521 1.17188 17.521C0.703125 17.521 0.328125 17.521 0 17.4741C2.25 18.9741 4.78125 19.6772 7.54688 19.6772C10.4062 19.6772 12.9375 18.9741 15.1875 17.4741C17.2031 16.1616 18.7969 14.4272 19.9219 12.1772C21 10.1147 21.5625 7.91162 21.5625 5.66162C21.5625 5.38037 21.5156 5.19287 21.5156 5.05225Z" fill="#1DA1F2"/>
</svg>
